<svg width="393" height="20" viewBox="0 0 393 20" fill="none" xmlns="http://www.w3.org/2000/svg">
<path d="M6.88 -4.76837e-07H49.88V5.2H6.88C6.50667 5.2 6.21333 5.22667 6 5.28C5.78667 5.33333 5.64 5.42667 5.56 5.56C5.48 5.69333 5.42667 5.8 5.4 5.88C5.4 5.96 5.4 6.10667 5.4 6.32C5.4 6.50667 5.4 6.64 5.4 6.72C5.42667 6.8 5.48 6.90667 5.56 7.04C5.64 7.17333 5.78667 7.26667 6 7.32C6.21333 7.37333 6.50667 7.4 6.88 7.4H14H18.92H43.6C45.4933 7.4 47.08 8.05333 48.36 9.36C49.64 10.64 50.28 12.0933 50.28 13.72C50.28 15.32 49.64 16.7733 48.36 18.08C47.08 19.36 45.4933 20 43.6 20H0.6V14.8H43.6C43.9733 14.8 44.2667 14.7733 44.48 14.72C44.6933 14.6667 44.84 14.5733 44.92 14.44C45 14.3067 45.04 14.2 45.04 14.12C45.0667 14.04 45.08 13.9067 45.08 13.72C45.08 13.5067 45.0667 13.36 45.04 13.28C45.04 13.2 45 13.0933 44.92 12.96C44.84 12.8267 44.6933 12.7333 44.48 12.68C44.2667 12.6267 43.9733 12.6 43.6 12.6H18.92H14H6.88C4.98667 12.6 3.4 11.96 2.12 10.68C0.84 9.37333 0.2 7.92 0.2 6.32C0.2 4.69333 0.84 3.24 2.12 1.96C3.4 0.653332 4.98667 -4.76837e-07 6.88 -4.76837e-07ZM78.4006 13.08V20H83.6006V13.08H78.4006ZM81.0006 11.12H80.9606C78.7473 11.12 76.6673 10.8533 74.7206 10.32C73.254 9.92 71.374 9.14667 69.0806 8C67.1073 7.04 65.3606 6.33333 63.8406 5.88C62.3473 5.42667 60.4806 5.2 58.2406 5.2V-4.76837e-07C60.8006 -4.76837e-07 63.1473 0.293333 65.2806 0.88C66.9073 1.30667 68.9473 2.13333 71.4006 3.36C73.4006 4.34667 74.974 5 76.1206 5.32C77.5873 5.72 79.214 5.92 81.0006 5.92H81.0406C82.774 5.92 84.3873 5.72 85.8806 5.32C87.0273 5 88.6006 4.34667 90.6006 3.36C93.054 2.13333 95.094 1.30667 96.7206 0.88C98.854 0.293333 101.201 -4.76837e-07 103.761 -4.76837e-07V5.2C102.187 5.2 100.721 5.34667 99.3606 5.64C98.0273 5.90667 96.9473 6.21333 96.1206 6.56C95.294 6.88 94.2273 7.36 92.9206 8C90.6006 9.14667 88.7206 9.92 87.2806 10.32C85.334 10.8533 83.2406 11.12 81.0006 11.12ZM152.83 -4.76837e-07H158.03V20H153.11H152.83C149.337 19.9733 146.017 19.2933 142.87 17.96C141.75 17.48 140.563 16.88 139.31 16.16C138.083 15.4133 137.123 14.8 136.43 14.32C135.763 13.84 134.777 13.12 133.47 12.16C132.243 11.28 131.27 10.6 130.55 10.12C129.857 9.61333 128.977 9.05333 127.91 8.44C126.87 7.8 125.87 7.28 124.91 6.88C122.403 5.81333 119.75 5.25333 116.95 5.2V20H111.75V-4.76837e-07H116.47H116.95C120.443 0.0533322 123.763 0.746665 126.91 2.08C128.083 2.58667 129.297 3.21333 130.55 3.96C131.803 4.68 132.777 5.29333 133.47 5.8C134.19 6.28 135.203 7 136.51 7.96C137.71 8.81333 138.657 9.49333 139.35 10C140.07 10.48 140.95 11.0267 141.99 11.64C143.03 12.2533 144.003 12.76 144.91 13.16C147.417 14.2267 150.057 14.7733 152.83 14.8V-4.76837e-07ZM191.241 16.2C190.654 15.5867 190.361 14.8667 190.361 14.04C190.361 13.1867 190.654 12.4667 191.241 11.88C191.827 11.2667 192.547 10.96 193.401 10.96C194.254 10.96 194.974 11.2667 195.561 11.88C196.174 12.4667 196.481 13.1867 196.481 14.04C196.481 14.8667 196.174 15.5867 195.561 16.2C194.974 16.7867 194.254 17.08 193.401 17.08C192.547 17.08 191.827 16.7867 191.241 16.2ZM193.921 -4.76837e-07H193.961C195.401 -4.76837e-07 196.801 0.186666 198.161 0.559999C199.521 0.933333 200.681 1.34667 201.641 1.8C202.601 2.25333 203.641 2.90667 204.761 3.76C205.881 4.61333 206.747 5.32 207.361 5.88C207.974 6.44 208.774 7.21333 209.761 8.2C210.614 9.02667 211.227 9.62667 211.601 10C211.974 10.3467 212.534 10.8533 213.281 11.52C214.027 12.16 214.654 12.6267 215.161 12.92C215.667 13.1867 216.294 13.5067 217.041 13.88C217.787 14.2267 218.547 14.4667 219.321 14.6C220.094 14.7333 220.934 14.8 221.841 14.8V20C220.401 20 219.001 19.8267 217.641 19.48C216.307 19.1067 215.147 18.6933 214.161 18.24C213.201 17.7867 212.161 17.1333 211.041 16.28C209.921 15.4267 209.054 14.7333 208.441 14.2C207.854 13.64 207.067 12.8667 206.081 11.88C205.227 11.0267 204.614 10.4267 204.241 10.08C203.867 9.70667 203.307 9.2 202.561 8.56C201.814 7.89333 201.174 7.42667 200.641 7.16C200.134 6.86667 199.507 6.54667 198.761 6.2C198.014 5.82667 197.241 5.57333 196.441 5.44C195.667 5.28 194.827 5.2 193.921 5.2C193.041 5.2 192.201 5.28 191.401 5.44C190.627 5.57333 189.867 5.82667 189.121 6.2C188.374 6.54667 187.734 6.86667 187.201 7.16C186.694 7.42667 186.067 7.89333 185.321 8.56C184.574 9.2 184.014 9.70667 183.641 10.08C183.267 10.4267 182.654 11.0267 181.801 11.88C180.814 12.8667 180.014 13.64 179.401 14.2C178.787 14.7333 177.921 15.4267 176.801 16.28C175.707 17.1333 174.667 17.7867 173.681 18.24C172.721 18.6933 171.561 19.1067 170.201 19.48C168.867 19.8267 167.481 20 166.041 20V14.8C166.947 14.8 167.787 14.7333 168.561 14.6C169.334 14.4667 170.094 14.2267 170.841 13.88C171.587 13.5067 172.214 13.1867 172.721 12.92C173.227 12.6267 173.854 12.16 174.601 11.52C175.347 10.8533 175.907 10.3467 176.281 10C176.654 9.62667 177.267 9.02667 178.121 8.2C179.107 7.21333 179.907 6.44 180.521 5.88C181.134 5.32 182.001 4.61333 183.121 3.76C184.241 2.90667 185.281 2.25333 186.241 1.8C187.201 1.34667 188.361 0.933333 189.721 0.559999C191.081 0.186666 192.481 -4.76837e-07 193.921 -4.76837e-07ZM229.823 -4.76837e-07H271.503C273.397 -4.76837e-07 274.983 0.653332 276.263 1.96C277.543 3.24 278.183 4.69333 278.183 6.32C278.183 7.92 277.543 9.37333 276.263 10.68C274.983 11.96 273.397 12.6 271.503 12.6H235.023V20H229.823V12.6V9V7.4H271.503C271.877 7.4 272.17 7.37333 272.383 7.32C272.597 7.26667 272.743 7.17333 272.823 7.04C272.903 6.90667 272.943 6.8 272.943 6.72C272.97 6.64 272.983 6.50667 272.983 6.32C272.983 6.10667 272.97 5.96 272.943 5.88C272.943 5.8 272.903 5.69333 272.823 5.56C272.743 5.42667 272.597 5.33333 272.383 5.28C272.17 5.22667 271.877 5.2 271.503 5.2H229.823V-4.76837e-07ZM292.825 -4.76837e-07H335.825V5.2H292.825C292.452 5.2 292.159 5.22667 291.945 5.28C291.732 5.33333 291.585 5.42667 291.505 5.56C291.425 5.69333 291.372 5.8 291.345 5.88C291.345 5.96 291.345 6.10667 291.345 6.32C291.345 6.50667 291.345 6.64 291.345 6.72C291.372 6.8 291.425 6.90667 291.505 7.04C291.585 7.17333 291.732 7.26667 291.945 7.32C292.159 7.37333 292.452 7.4 292.825 7.4H299.945H304.865H329.545C331.439 7.4 333.025 8.05333 334.305 9.36C335.585 10.64 336.225 12.0933 336.225 13.72C336.225 15.32 335.585 16.7733 334.305 18.08C333.025 19.36 331.439 20 329.545 20H286.545V14.8H329.545C329.919 14.8 330.212 14.7733 330.425 14.72C330.639 14.6667 330.785 14.5733 330.865 14.44C330.945 14.3067 330.985 14.2 330.985 14.12C331.012 14.04 331.025 13.9067 331.025 13.72C331.025 13.5067 331.012 13.36 330.985 13.28C330.985 13.2 330.945 13.0933 330.865 12.96C330.785 12.8267 330.639 12.7333 330.425 12.68C330.212 12.6267 329.919 12.6 329.545 12.6H304.865H299.945H292.825C290.932 12.6 289.345 11.96 288.065 10.68C286.785 9.37333 286.145 7.92 286.145 6.32C286.145 4.69333 286.785 3.24 288.065 1.96C289.345 0.653332 290.932 -4.76837e-07 292.825 -4.76837e-07ZM344.967 14.8H392.047V20H344.967V14.8ZM344.967 -4.76837e-07H392.047V5.2H344.967V-4.76837e-07ZM344.967 7.4H392.047V12.6H344.967V7.4Z" fill="white"/>
</svg>
