<svg xmlns="http://www.w3.org/2000/svg" xmlns:xlink="http://www.w3.org/1999/xlink" width="200"
    zoomAndPan="magnify" viewBox="0 0 375 374.999991" height="180"
    preserveAspectRatio="xMidYMid meet" version="1.0">

    <g clip-path="url(#d0567acdac)">
        <path fill="#000000"
            d="M 151.382812 196.972656 C 150.066406 199.960938 148.046875 202.632812 145.578125 204.808594 C 143.109375 206.988281 140.140625 208.59375 136.964844 209.542969 C 135.375 210.015625 133.730469 210.320312 132.070312 210.4375 C 131.652344 210.457031 131.234375 210.488281 130.816406 210.492188 L 129.570312 210.480469 C 129.359375 210.484375 129.152344 210.46875 128.945312 210.449219 L 128.320312 210.394531 L 127.691406 210.34375 C 127.484375 210.320312 127.277344 210.285156 127.066406 210.253906 C 125.398438 210.050781 123.746094 209.625 122.121094 209.113281 C 120.492188 208.613281 118.90625 207.9375 117.347656 207.210938 L 116.183594 206.644531 L 115.039062 206.035156 C 114.65625 205.835938 114.28125 205.617188 113.910156 205.398438 C 113.535156 205.175781 113.152344 204.972656 112.789062 204.738281 C 111.304688 203.835938 109.863281 202.863281 108.441406 201.851562 C 105.617188 199.808594 102.921875 197.5625 100.359375 195.171875 C 98.363281 193.316406 96.433594 191.386719 94.605469 189.359375 L 94.917969 188.96875 L 95.417969 187.496094 C 95.445312 187.945312 95.277344 188.503906 94.996094 188.871094 C 94.859375 189.046875 94.972656 188.902344 94.945312 188.933594 L 94.972656 188.90625 L 95.070312 188.785156 L 95.269531 188.546875 L 95.679688 188.0625 L 96.519531 187.097656 C 97.085938 186.453125 97.664062 185.820312 98.25 185.191406 C 99.421875 183.933594 100.628906 182.707031 101.859375 181.507812 C 104.328125 179.121094 106.910156 176.851562 109.617188 174.773438 C 110.960938 173.726562 112.355469 172.753906 113.761719 171.808594 C 115.179688 170.886719 116.625 170.023438 118.105469 169.238281 C 121.066406 167.695312 124.167969 166.464844 127.324219 165.878906 C 127.523438 165.839844 127.71875 165.792969 127.917969 165.765625 L 128.511719 165.691406 L 129.101562 165.613281 L 129.398438 165.574219 L 129.695312 165.558594 L 130.875 165.496094 C 131.273438 165.488281 131.675781 165.503906 132.074219 165.503906 C 133.667969 165.5625 135.253906 165.800781 136.792969 166.207031 C 138.335938 166.613281 139.832031 167.191406 141.253906 167.921875 C 142.679688 168.644531 144.023438 169.535156 145.257812 170.566406 C 147.722656 172.621094 149.761719 175.207031 151.140625 178.121094 C 152.535156 181.027344 153.289062 184.242188 153.332031 187.492188 C 153.371094 190.738281 152.714844 193.992188 151.382812 196.972656 Z M 91.214844 185.828125 L 91.1875 185.863281 L 91.085938 185.992188 C 91.078125 186.003906 91.066406 186.019531 91.054688 186.035156 L 91.0625 186.019531 L 90.6875 186.492188 L 90.289062 186.984375 C 90.019531 187.3125 89.75 187.636719 89.472656 187.960938 C 88.921875 188.613281 88.359375 189.257812 87.785156 189.890625 C 86.636719 191.164062 85.453125 192.40625 84.242188 193.617188 C 81.8125 196.027344 79.257812 198.308594 76.570312 200.390625 C 75.234375 201.441406 73.847656 202.410156 72.445312 203.34375 C 71.035156 204.269531 69.582031 205.109375 68.105469 205.890625 C 65.140625 207.398438 62.039062 208.589844 58.867188 209.140625 L 58.273438 209.25 L 57.679688 209.320312 C 57.28125 209.359375 56.886719 209.425781 56.488281 209.445312 L 55.296875 209.496094 C 55.199219 209.496094 55.101562 209.503906 55 209.507812 L 54.703125 209.5 L 54.101562 209.484375 C 52.507812 209.425781 50.917969 209.199219 49.371094 208.796875 C 46.285156 207.988281 43.359375 206.527344 40.867188 204.503906 C 38.382812 202.472656 36.328125 199.910156 34.910156 197.019531 C 33.492188 194.128906 32.710938 190.925781 32.640625 187.683594 C 32.566406 184.4375 33.199219 181.179688 34.5 178.1875 C 35.148438 176.691406 35.957031 175.261719 36.914062 173.933594 C 37.878906 172.613281 38.976562 171.382812 40.199219 170.285156 C 41.421875 169.191406 42.761719 168.21875 44.199219 167.40625 C 45.636719 166.601562 47.164062 165.949219 48.746094 165.46875 C 50.324219 164.984375 51.964844 164.675781 53.625 164.546875 C 55.289062 164.410156 56.941406 164.507812 58.605469 164.730469 C 60.269531 164.953125 61.917969 165.382812 63.535156 165.910156 C 64.347656 166.164062 65.140625 166.484375 65.941406 166.792969 C 66.726562 167.136719 67.523438 167.460938 68.292969 167.851562 C 69.074219 168.210938 69.832031 168.625 70.597656 169.027344 C 71.351562 169.457031 72.109375 169.871094 72.84375 170.332031 C 73.589844 170.777344 74.3125 171.261719 75.046875 171.726562 C 75.765625 172.214844 76.492188 172.695312 77.195312 173.207031 C 78.617188 174.214844 80.003906 175.277344 81.359375 176.378906 C 82.714844 177.484375 84.042969 178.625 85.34375 179.796875 C 87.421875 181.671875 89.429688 183.625 91.347656 185.667969 L 91.328125 185.691406 Z M 154.835938 176.40625 C 153.28125 172.921875 150.917969 169.804688 148.027344 167.300781 C 145.140625 164.785156 141.667969 162.929688 137.960938 161.898438 C 136.109375 161.382812 134.195312 161.070312 132.273438 160.972656 C 131.792969 160.964844 131.3125 160.941406 130.832031 160.941406 L 129.378906 161 L 129.015625 161.015625 L 128.65625 161.054688 L 127.21875 161.21875 C 126.980469 161.25 126.75 161.300781 126.511719 161.34375 C 122.730469 161.988281 119.214844 163.390625 115.929688 165.0625 C 114.292969 165.910156 112.710938 166.839844 111.167969 167.824219 C 109.644531 168.828125 108.144531 169.859375 106.703125 170.964844 C 103.816406 173.160156 101.097656 175.542969 98.503906 178.039062 C 97.207031 179.289062 95.945312 180.570312 94.710938 181.882812 C 94.097656 182.539062 93.488281 183.207031 92.886719 183.878906 C 92.585938 184.21875 92.289062 184.558594 91.992188 184.902344 L 91.550781 185.425781 L 91.449219 185.546875 C 87.460938 180.640625 82.957031 176.140625 78.003906 172.140625 C 77.316406 171.578125 76.605469 171.046875 75.898438 170.507812 C 75.183594 169.984375 74.464844 169.460938 73.71875 168.96875 C 72.988281 168.460938 72.226562 167.996094 71.472656 167.515625 C 70.703125 167.066406 69.941406 166.597656 69.144531 166.183594 C 68.363281 165.742188 67.550781 165.363281 66.742188 164.964844 C 65.917969 164.601562 65.097656 164.226562 64.246094 163.914062 C 62.554688 163.269531 60.808594 162.722656 59 162.394531 C 58.773438 162.351562 58.550781 162.292969 58.324219 162.265625 L 57.636719 162.171875 C 57.179688 162.113281 56.722656 162.039062 56.257812 162.023438 C 55.796875 162 55.332031 161.957031 54.871094 161.949219 C 54.40625 161.953125 53.945312 161.9375 53.480469 161.960938 C 51.632812 162.03125 49.785156 162.300781 47.984375 162.773438 C 46.183594 163.242188 44.433594 163.917969 42.777344 164.773438 C 41.117188 165.632812 39.558594 166.683594 38.121094 167.882812 C 32.335938 172.652344 28.816406 180.125 28.839844 187.710938 C 28.824219 191.496094 29.644531 195.304688 31.242188 198.765625 C 32.84375 202.226562 35.230469 205.3125 38.140625 207.785156 C 41.0625 210.25 44.523438 212.085938 48.226562 213.09375 C 50.074219 213.605469 51.980469 213.902344 53.894531 214.003906 L 54.613281 214.027344 L 54.972656 214.042969 C 55.09375 214.042969 55.214844 214.035156 55.332031 214.035156 L 56.777344 213.996094 C 57.261719 213.976562 57.734375 213.90625 58.210938 213.863281 L 58.925781 213.789062 L 59.628906 213.671875 C 61.519531 213.390625 63.339844 212.871094 65.117188 212.269531 L 66.433594 211.785156 C 66.871094 211.617188 67.292969 211.425781 67.722656 211.25 L 68.367188 210.976562 L 68.996094 210.675781 C 69.410156 210.476562 69.832031 210.28125 70.246094 210.074219 C 71.886719 209.230469 73.484375 208.316406 75.023438 207.328125 C 76.550781 206.328125 78.054688 205.296875 79.492188 204.183594 C 80.933594 203.082031 82.335938 201.933594 83.6875 200.734375 C 85.039062 199.539062 86.363281 198.308594 87.640625 197.039062 C 88.921875 195.773438 90.167969 194.472656 91.375 193.136719 C 91.980469 192.46875 92.578125 191.792969 93.164062 191.101562 C 93.460938 190.761719 93.75 190.414062 94.039062 190.0625 L 94.472656 189.53125 L 94.492188 189.507812 C 95.082031 190.261719 95.691406 191.007812 96.3125 191.742188 C 97.449219 193.089844 98.628906 194.40625 99.839844 195.691406 C 102.277344 198.253906 104.871094 200.675781 107.625 202.921875 C 109.007812 204.03125 110.425781 205.113281 111.90625 206.109375 C 112.269531 206.367188 112.652344 206.597656 113.027344 206.84375 C 113.398438 207.089844 113.777344 207.332031 114.164062 207.554688 L 115.316406 208.246094 L 116.496094 208.890625 C 118.085938 209.726562 119.714844 210.515625 121.421875 211.132812 C 123.121094 211.753906 124.875 212.296875 126.6875 212.609375 C 126.910156 212.652344 127.136719 212.703125 127.363281 212.738281 L 128.738281 212.910156 C 128.964844 212.941406 129.195312 212.96875 129.425781 212.972656 L 130.816406 213.046875 C 131.277344 213.058594 131.738281 213.039062 132.203125 213.039062 C 134.054688 212.984375 135.90625 212.714844 137.707031 212.257812 C 141.316406 211.335938 144.738281 209.628906 147.636719 207.25 C 150.539062 204.878906 152.949219 201.871094 154.578125 198.464844 C 156.222656 195.0625 157.117188 191.285156 157.152344 187.492188 C 157.195312 183.703125 156.402344 179.882812 154.835938 176.40625 "
            fill-opacity="1" fill-rule="nonzero"></path>
    </g>
    <g fill="#000000" fill-opacity="1">
        <g transform="translate(166.181742, 213.837865)">
            <g>
                <path
                    d="M 13.640625 -54.53125 L 46.359375 -54.53125 C 48.359375 -54.53125 50.1875 -54.039062 51.84375 -53.0625 C 53.5 -52.09375 54.816406 -50.773438 55.796875 -49.109375 C 56.773438 -47.453125 57.265625 -45.625 57.265625 -43.625 L 57.265625 0 L 46.359375 0 L 46.359375 -21.8125 L 13.640625 -21.8125 L 13.640625 0 L 2.734375 0 L 2.734375 -43.625 C 2.734375 -45.625 3.21875 -47.453125 4.1875 -49.109375 C 5.164062 -50.773438 6.484375 -52.09375 8.140625 -53.0625 C 9.804688 -54.039062 11.640625 -54.53125 13.640625 -54.53125 Z M 13.640625 -43.625 L 13.640625 -32.71875 L 46.359375 -32.71875 L 46.359375 -43.625 Z M 13.640625 -43.625 "></path>
            </g>
        </g>
    </g>
    <g fill="#000000" fill-opacity="1">
        <g transform="translate(226.171269, 213.837865)">
            <g>
                <path
                    d="M 57.265625 -43.625 L 57.265625 -32.71875 C 57.265625 -30.71875 56.773438 -28.890625 55.796875 -27.234375 C 54.816406 -25.578125 53.5 -24.257812 51.84375 -23.28125 C 50.1875 -22.300781 48.359375 -21.8125 46.359375 -21.8125 L 35.453125 -21.8125 L 46.359375 -10.90625 L 57.265625 -10.90625 L 57.265625 0 L 44.171875 0 C 42.628906 0 41.3125 -0.546875 40.21875 -1.640625 L 20.046875 -21.8125 L 13.640625 -21.8125 L 13.640625 0 L 2.734375 0 L 2.734375 -54.53125 L 46.359375 -54.53125 C 48.359375 -54.53125 50.1875 -54.039062 51.84375 -53.0625 C 53.5 -52.09375 54.816406 -50.773438 55.796875 -49.109375 C 56.773438 -47.453125 57.265625 -45.625 57.265625 -43.625 Z M 46.359375 -43.625 L 13.640625 -43.625 L 13.640625 -32.71875 L 46.359375 -32.71875 Z M 46.359375 -43.625 "></path>
            </g>
        </g>
    </g>
    <g fill="#000000" fill-opacity="1">
        <g transform="translate(286.160797, 213.837865)">
            <g>
                <path
                    d="M 57.265625 0 L 13.640625 0 C 11.640625 0 9.804688 -0.488281 8.140625 -1.46875 C 6.484375 -2.445312 5.164062 -3.765625 4.1875 -5.421875 C 3.21875 -7.078125 2.734375 -8.90625 2.734375 -10.90625 L 2.734375 -43.625 C 2.734375 -45.625 3.21875 -47.453125 4.1875 -49.109375 C 5.164062 -50.773438 6.484375 -52.09375 8.140625 -53.0625 C 9.804688 -54.039062 11.640625 -54.53125 13.640625 -54.53125 L 57.265625 -54.53125 L 57.265625 -43.625 L 13.640625 -43.625 L 13.640625 -10.90625 L 57.265625 -10.90625 Z M 57.265625 0 "></path>
            </g>
        </g>
    </g>
</svg>